<?xml version="1.0" encoding="UTF-8"?>
<svg version="1.1" xmlns="http://www.w3.org/2000/svg" width="1024" height="1024">
<path d="M0 0 C337.92 0 675.84 0 1024 0 C1024 337.92 1024 675.84 1024 1024 C686.08 1024 348.16 1024 0 1024 C0 686.08 0 348.16 0 0 Z " fill="#FAFAFA" transform="translate(0,0)"/>
<path d="M0 0 C1.97972054 -0.00430527 1.97972054 -0.00430527 3.99943542 -0.00869751 C6.77357715 -0.01307992 9.54742599 -0.00682701 12.3215332 0.00732422 C15.8279694 0.02436594 19.33372032 0.01429951 22.84013271 -0.00299072 C52.13589529 -0.1259331 76.94352266 3.18829865 98.875 24.45703125 C114.50467959 40.22266656 122.02422238 60.35179328 122.23046875 82.3359375 C121.97779531 109.31935517 111.40275085 130.37616474 92.68359375 149.48828125 C83.65916576 158.05470256 69.82729766 167.60047005 57.16796875 168.7109375 C54.73046875 168.3984375 54.73046875 168.3984375 53.73046875 167.3984375 C53.62667144 165.79854583 53.5925032 164.19409163 53.58570862 162.59085083 C53.57881012 161.55045654 53.57191162 160.51006226 53.56480408 159.43814087 C53.5621907 158.2869577 53.55957733 157.13577454 53.55688477 155.94970703 C53.55019775 154.74493713 53.54351074 153.54016724 53.53662109 152.29888916 C53.52253162 149.67261504 53.51021169 147.0463972 53.50067329 144.4201088 C53.48525452 140.26895182 53.46130554 136.11787186 53.43577576 131.96676636 C53.36448366 120.16067363 53.30477772 108.35453656 53.25366211 96.54833984 C53.22537456 90.03221411 53.19000102 83.51616476 53.14700836 77.00011909 C53.12020371 72.8721888 53.1023183 68.74434497 53.09097111 64.61634469 C53.07971541 61.44616424 53.05558933 58.27607731 53.03344727 55.10595703 C53.03285812 53.95882233 53.03226898 52.81168762 53.03166199 51.62979126 C53.02194366 50.58375732 53.01222534 49.53772339 53.00221252 48.45999146 C52.99798059 47.54963701 52.99374865 46.63928257 52.98938847 45.70134163 C52.87757364 43.12264225 52.87757364 43.12264225 50.73046875 40.3984375 C34.61108343 36.37764272 20.14027777 42.2041957 6.35888672 49.93994141 C3.1588654 51.71561736 -0.10133259 53.34093175 -3.38842773 54.94799805 C-6.36098906 56.40689121 -9.31349583 57.90634343 -12.26953125 59.3984375 C-12.26953125 68.3084375 -12.26953125 77.2184375 -12.26953125 86.3984375 C-6.50464741 87.55141427 -4.54937626 86.30639486 0.16796875 83.4609375 C1.45126326 82.68993107 2.74157666 81.93047139 4.0390625 81.18359375 C4.88682251 80.67131226 4.88682251 80.67131226 5.75170898 80.14868164 C8.43899579 79.12980041 10.87919161 79.35195562 13.73046875 79.3984375 C13.77673614 91.09842187 13.8123094 102.7983846 13.83409309 114.4984417 C13.84454627 119.9307973 13.85873336 125.36309048 13.88134766 130.79541016 C13.90302145 136.03438051 13.91502581 141.27329069 13.92022324 146.5123024 C13.92392884 148.51465935 13.93116458 150.51701288 13.94192886 152.51934433 C13.95637122 155.31619223 13.95844975 158.112789 13.95751953 160.90966797 C13.96471008 161.74404388 13.97190063 162.5784198 13.97930908 163.43807983 C13.95857307 169.17033318 13.95857307 169.17033318 11.73046875 171.3984375 C8.58079034 171.68980119 5.47636389 171.81339076 2.31640625 171.87695312 C-0.62372827 171.99560029 -2.99790974 172.27469394 -5.6875 173.5 C-8.02515323 176.30518388 -7.93536286 178.72981878 -8.20703125 182.3359375 C-9.43941914 194.53303964 -14.46570415 206.26833434 -23.58203125 214.7109375 C-33.42320768 222.51899177 -45.05827184 223.74123515 -57.20703125 223.6484375 C-58.24666016 223.65617188 -59.28628906 223.66390625 -60.35742188 223.671875 C-61.34806641 223.66929687 -62.33871094 223.66671875 -63.359375 223.6640625 C-64.25519287 223.66180664 -65.15101074 223.65955078 -66.07397461 223.65722656 C-68.26953125 223.3984375 -68.26953125 223.3984375 -70.26953125 221.3984375 C-70.52959347 218.58893394 -70.52959347 218.58893394 -70.54368591 214.92562866 C-70.54892259 214.25325562 -70.55415927 213.58088258 -70.55955464 212.8881346 C-70.57461545 210.62376867 -70.57526114 208.35962752 -70.57592773 206.09521484 C-70.58354603 204.47557695 -70.59197295 202.85594268 -70.60115051 201.23631287 C-70.62315608 196.82433377 -70.63190442 192.41242404 -70.63697696 188.00039625 C-70.64061843 185.23935721 -70.64685791 182.47833635 -70.65397835 179.71730423 C-70.67850983 170.07031711 -70.69152927 160.42338389 -70.69506836 150.77636719 C-70.69868951 141.81173002 -70.72847277 132.84743822 -70.77047294 123.88290632 C-70.80531952 116.17226453 -70.8206194 108.46173615 -70.82131439 100.75101626 C-70.82210341 96.15276911 -70.83066492 91.55487222 -70.85931206 86.956707 C-70.88573417 82.61781305 -70.88756538 78.27955325 -70.87165642 73.9406147 C-70.86985994 72.36056305 -70.87636674 70.78047296 -70.89247513 69.2005024 C-71.08058813 49.52540296 -65.07976952 32.39203219 -51.12890625 18.12890625 C-36.75582795 4.40379459 -19.48255854 -0.09549847 0 0 Z " fill="#009F41" transform="translate(188.26953125,392.6015625)"/>
<path d="M0 0 C9.83225849 -0.06982928 19.66445697 -0.1229773 29.49691391 -0.15543652 C34.06362482 -0.17102345 38.63016478 -0.19213267 43.19677734 -0.22631836 C47.61235459 -0.25916263 52.02776848 -0.2769053 56.44345856 -0.28463173 C58.11938291 -0.29013062 59.79529938 -0.30086722 61.47115326 -0.31719017 C78.61852654 -0.47740712 93.9960485 2.03957668 107 14.375 C110.87366031 18.57441602 113.68063345 22.78995235 116 28 C116.5878125 29.16595703 116.5878125 29.16595703 117.1875 30.35546875 C122.72360452 43.36915888 122.28728229 62.23273571 117.2578125 75.3515625 C111.06746027 88.38590663 103.53508833 96.52436376 90 102 C80.64936915 105.18743209 71.50405628 106.16006923 61.6875 106.09765625 C60.83317383 106.0962413 59.97884766 106.09482635 59.09863281 106.09336853 C56.39905127 106.08781962 53.69955601 106.07527697 51 106.0625 C49.15755329 106.05747839 47.31510527 106.05291664 45.47265625 106.04882812 C40.98173814 106.03786699 36.49088364 106.02063825 32 106 C32.00444122 106.67207489 32.00888245 107.34414978 32.01345825 108.03659058 C32.05759634 115.01151408 32.08782667 121.98639813 32.10986328 128.96142578 C32.11994064 131.56691091 32.1336027 134.17238469 32.15087891 136.77783203 C32.17505102 140.51597899 32.1864656 144.25397685 32.1953125 147.9921875 C32.20563507 149.16304901 32.21595764 150.33391052 32.22659302 151.54025269 C32.22681961 153.161707 32.22681961 153.161707 32.22705078 154.81591797 C32.231492 155.77078094 32.23593323 156.72564392 32.24050903 157.70944214 C32 160 32 160 30 162 C27.12670898 162.24291992 27.12670898 162.24291992 23.49609375 162.23046875 C22.19865234 162.22853516 20.90121094 162.22660156 19.56445312 162.22460938 C18.88777588 162.21840576 18.21109863 162.21220215 17.51391602 162.20581055 C15.44209529 162.18754052 13.37072103 162.18530095 11.29882812 162.18554688 C1.14008257 162.14008257 1.14008257 162.14008257 0 161 C-0.09683581 158.92439194 -0.12186902 156.84542796 -0.12025452 154.76756287 C-0.12110894 154.10925651 -0.12196337 153.45095016 -0.12284368 152.77269512 C-0.1245003 150.55082894 -0.11897418 148.32903705 -0.11352539 146.10717773 C-0.11324353 144.52084352 -0.11340123 142.93450918 -0.1139679 141.34817505 C-0.11425592 137.02811278 -0.10835837 132.70807803 -0.10139394 128.38802218 C-0.09516125 123.87831685 -0.09455667 119.36861095 -0.09336853 114.85890198 C-0.09025496 106.31305626 -0.08204124 97.76722326 -0.07201904 89.22138315 C-0.06085869 79.49482367 -0.05534765 69.76826358 -0.05032361 60.04169929 C-0.03985864 40.02779241 -0.02225871 20.01389701 0 0 Z " fill="#009F3F" transform="translate(356,412)"/>
<path d="M0 0 C10.64081559 8.382513 15.28587885 19.82590001 17 33 C17.48818116 39.1813274 17.40013242 45.38239842 17.36328125 51.578125 C17.36276132 53.32452392 17.36328416 55.07092343 17.36479187 56.81732178 C17.36470292 60.44454894 17.35442181 64.07155022 17.33618164 67.69873047 C17.31329244 72.35262925 17.31299513 77.00620496 17.31969929 81.66014481 C17.3230315 85.25112804 17.31642674 88.8420371 17.30657005 92.43300629 C17.30272003 94.1506588 17.30156902 95.86831955 17.3031559 97.58597565 C17.30352516 99.97186749 17.29095276 102.35733569 17.2746582 104.74316406 C17.27713562 105.45268723 17.27961304 106.16221039 17.28216553 106.89323425 C17.22876969 111.77123031 17.22876969 111.77123031 15 114 C12.31030273 114.24291992 12.31030273 114.24291992 8.93359375 114.23046875 C7.72638672 114.22853516 6.51917969 114.22660156 5.27539062 114.22460938 C4.00888672 114.21236328 2.74238281 114.20011719 1.4375 114.1875 C0.16712891 114.18685547 -1.10324219 114.18621094 -2.41210938 114.18554688 C-11.85989947 114.14010053 -11.85989947 114.14010053 -13 113 C-13.23427778 110.98405418 -13.41336124 108.961526 -13.5625 106.9375 C-13.68818359 105.28041016 -13.68818359 105.28041016 -13.81640625 103.58984375 C-13.87699219 102.73519531 -13.93757812 101.88054687 -14 101 C-14.65355469 101.79664063 -14.65355469 101.79664063 -15.3203125 102.609375 C-22.79876241 111.47991732 -30.5668485 115.43323479 -42 117 C-56.93883746 117.88074779 -69.13622979 115.86019188 -81 106.40625 C-87.64399947 100.33500911 -91.48816068 92.40783459 -92.203125 83.45703125 C-92.41389151 71.56628749 -89.16734825 62.8201805 -81 54 C-62.35114652 39.08709233 -36.40988014 40.8133228 -14 41 C-14.90764322 30.69122641 -14.90764322 30.69122641 -20 22 C-27.61047038 16.25331828 -34.82977656 16.3604357 -44 17 C-47.55710952 17.74043911 -50.12022623 18.78662605 -53 21 C-53.82520504 22.51861353 -54.60671229 24.0614949 -55.3515625 25.62109375 C-57.40996743 28.82819535 -58.335693 29.83895111 -62.08862305 30.7487793 C-65.86560676 30.92280897 -69.53752113 30.83398222 -73.3125 30.625 C-74.61251953 30.59277344 -75.91253906 30.56054688 -77.25195312 30.52734375 C-86.76095856 30.23904144 -86.76095856 30.23904144 -88 29 C-87.6836275 19.03426628 -83.8008214 11.07087616 -76.99609375 3.8125 C-57.99464798 -13.44125898 -21.08467924 -14.18285978 0 0 Z " fill="#019F40" transform="translate(572,460)"/>
<path d="M0 0 C4.21742593 -0.12365029 8.43389111 -0.21435665 12.65258789 -0.2746582 C14.08734514 -0.29979524 15.52197441 -0.33391108 16.95629883 -0.37719727 C19.0193637 -0.43789665 21.08073615 -0.46621353 23.14453125 -0.48828125 C25.00621948 -0.52755737 25.00621948 -0.52755737 26.90551758 -0.56762695 C30 0 30 0 31.71557617 2.00317383 C33.34071338 5.79495471 34.92531494 9.58679506 36.40625 13.4375 C36.72760925 14.26257553 37.04896851 15.08765106 37.38006592 15.93772888 C38.42460835 18.62340588 39.46243523 21.31162048 40.5 24 C41.21944372 25.85435781 41.93917218 27.70860517 42.65917969 29.56274414 C47.34653741 41.64947602 51.98263006 53.75563131 56.54882812 65.88867188 C58.95859403 72.29021694 61.4293884 78.66122636 64 85 C65.88538043 82.17192935 66.88810123 79.8457561 68.02783203 76.66845703 C68.42229523 75.57526154 68.81675842 74.48206604 69.22317505 73.35574341 C69.64710541 72.16842621 70.07103577 70.98110901 70.5078125 69.7578125 C71.18738956 67.87145051 71.86696876 65.98508928 72.54665947 64.09876823 C73.50216802 61.44388049 74.45400394 58.7876821 75.40582275 56.13146973 C86.52365677 25.11325064 86.52365677 25.11325064 91.5546875 11.8046875 C91.87760773 10.94416779 92.20052795 10.08364807 92.53323364 9.197052 C92.83148041 8.41514496 93.12972717 7.63323792 93.43701172 6.82763672 C93.69247772 6.15529999 93.94794373 5.48296326 94.21115112 4.79025269 C95 3 95 3 97 0 C100.07275391 -0.34057617 100.07275391 -0.34057617 103.9765625 -0.29296875 C104.66181 -0.28872391 105.3470575 -0.28447906 106.05307007 -0.28010559 C108.24411129 -0.26329753 110.43423632 -0.22564405 112.625 -0.1875 C114.10936173 -0.17245579 115.59373785 -0.15876693 117.078125 -0.14648438 C120.71904833 -0.1133879 124.35943478 -0.06159207 128 0 C129.66958709 4.90064133 128.006621 8.42692445 126.08203125 12.953125 C125.75796799 13.74435257 125.43390472 14.53558014 125.10002136 15.3507843 C124.0162219 17.98900066 122.91430601 20.6192586 121.8125 23.25 C121.03972529 25.12178225 120.26826795 26.99410886 119.49804688 28.86694336 C117.85702056 32.85307436 116.20929463 36.83634485 114.55712891 40.81787109 C112.01685099 46.94784329 109.5099282 53.09106339 107.01171875 59.23828125 C102.43391175 70.50023411 97.83684053 81.75417224 93.2276001 93.0032959 C92.00817169 95.98005203 90.78994288 98.9572972 89.57177734 101.93457031 C87.64486927 106.64170613 85.71165597 111.34620753 83.77368164 116.04879761 C83.06356357 117.77391445 82.35515763 119.49973732 81.64868164 121.22634888 C65.8447664 159.82868698 65.8447664 159.82868698 49 167 C41.24674808 169.68875129 34.10793901 170.44470775 25.9375 170.3125 C24.90689453 170.31572266 23.87628906 170.31894531 22.81445312 170.32226562 C15.26775897 170.26775897 15.26775897 170.26775897 13 168 C12.77294922 165.66162109 12.77294922 165.66162109 12.8046875 162.7734375 C12.81113281 161.7421875 12.81757812 160.7109375 12.82421875 159.6484375 C12.84097656 158.56820312 12.85773437 157.48796875 12.875 156.375 C12.88402344 155.28703125 12.89304687 154.1990625 12.90234375 153.078125 C12.92596591 150.38519848 12.95890444 147.69270745 13 145 C15.49210622 143.75394689 17.71402717 143.81612831 20.45996094 143.70996094 C31.77869896 143.41919442 31.77869896 143.41919442 41.3125 137.8125 C45.13648373 131.43919378 46.33651758 127.45579991 45 120 C44.28802144 117.86271905 43.49881345 115.75014593 42.6484375 113.6640625 C42.40176834 113.05241241 42.15509918 112.44076233 41.9009552 111.81057739 C41.06621087 109.74570114 40.22047642 107.68550271 39.375 105.625 C38.76784482 104.12825041 38.16150987 102.63116789 37.5559082 101.13378906 C36.17709604 97.72788661 34.79374074 94.32387147 33.40771484 90.92089844 C29.40529981 81.08759004 25.43819585 71.23996535 21.46596909 61.39443398 C19.7336302 57.10126793 17.99801969 52.80943457 16.26123047 48.51806641 C13.94330528 42.78934027 11.63862301 37.05540043 9.33831787 31.31958008 C7.99316454 27.98304523 6.62959381 24.65445091 5.26416016 21.32617188 C4.42168869 19.24369657 3.57970501 17.16102385 2.73828125 15.078125 C2.3436821 14.12983826 1.94908295 13.18155151 1.54252625 12.20452881 C1.19116104 11.32653625 0.83979584 10.4485437 0.4777832 9.54394531 C0.1667012 8.78317688 -0.1443808 8.02240845 -0.46488953 7.23858643 C-1.11205516 4.53122733 -0.7121507 2.66413081 0 0 Z " fill="#019F3F" transform="translate(595,454)"/>
<path d="M0 0 C8.41689837 7.10732053 15.74013724 17.08054998 18.2734375 27.99609375 C17.69638832 32.57314293 17.69638832 32.57314293 16.2734375 33.99609375 C12.07736983 34.47418648 7.86733645 34.55444378 3.6484375 34.68359375 C2.47152344 34.76287109 1.29460937 34.84214844 0.08203125 34.92382812 C-8.52708373 35.13203507 -8.52708373 35.13203507 -11.9987793 31.84423828 C-13.83984375 29.171875 -13.83984375 29.171875 -15.31762695 26.5012207 C-17.9419963 21.83501834 -21.79123858 18.94225211 -26.5390625 16.62109375 C-35.20435728 14.92201634 -43.33220586 15.5783696 -50.890625 20.3671875 C-57.52561227 25.5484416 -60.99290954 32.84226054 -62.7265625 40.99609375 C-62.97285497 44.53449556 -62.95772515 48.07496185 -62.9765625 51.62109375 C-62.9971875 52.56855469 -63.0178125 53.51601563 -63.0390625 54.4921875 C-63.09307047 64.36214362 -61.15694783 72.49149537 -54.64453125 80.078125 C-49.08032072 85.64233553 -43.87477054 86.36141763 -36.2265625 86.43359375 C-28.91728993 86.30202214 -23.02849856 86.17946837 -17.55078125 80.8984375 C-14.66268153 77.74358612 -12.09942136 74.55538204 -9.7265625 70.99609375 C-7.23632812 70.63964844 -7.23632812 70.63964844 -4.1328125 70.66796875 C-2.46412109 70.67570313 -2.46412109 70.67570313 -0.76171875 70.68359375 C0.40488281 70.70421875 1.57148437 70.72484375 2.7734375 70.74609375 C3.94003906 70.75125 5.10664062 70.75640625 6.30859375 70.76171875 C14.96518042 70.84196521 14.96518042 70.84196521 17.2734375 71.99609375 C17.87898314 82.13576217 12.36884016 90.95939685 5.9609375 98.49609375 C-5.12836247 109.96130219 -20.38522564 114.87165413 -36.0390625 115.30859375 C-52.7567074 115.01041935 -67.07650024 109.21009131 -79.3515625 97.99609375 C-91.76856407 84.97232771 -95.3556666 66.35794584 -95.13354492 48.91162109 C-94.47525957 30.1339829 -88.62005847 13.93232542 -74.890625 0.8125 C-54.51695053 -16.28814734 -21.01597452 -15.44583801 0 0 Z " fill="#019F40" transform="translate(906.7265625,462.00390625)"/>
<path d="M0 0 C1.26972656 0.02191406 2.53945313 0.04382813 3.84765625 0.06640625 C6.9375 0.4375 6.9375 0.4375 8.9375 2.4375 C9.13141066 5.22745347 9.19967258 7.91769945 9.18041992 10.70849609 C9.18322495 11.99977417 9.18322495 11.99977417 9.18608665 13.31713867 C9.18975054 16.19849251 9.17893957 19.07960492 9.16796875 21.9609375 C9.16719699 23.9939472 9.16720676 26.02695733 9.16795349 28.05996704 C9.16700682 33.51634404 9.15280661 38.97260939 9.13513947 44.42895508 C9.12504195 47.79850264 9.11829249 51.16803975 9.11273193 54.53759766 C9.06693578 81.83851277 8.95335041 109.13914418 8.5625 136.4375 C8.54730316 137.69052917 8.53210632 138.94355835 8.51644897 140.23455811 C8.4722853 143.67748798 8.41468587 147.11987243 8.3515625 150.5625 C8.33999619 151.55351715 8.32842987 152.5445343 8.31651306 153.56558228 C8.28673119 154.89823624 8.28673119 154.89823624 8.25634766 156.2578125 C8.24302399 157.02367676 8.22970032 157.78954102 8.2159729 158.57861328 C7.9375 160.4375 7.9375 160.4375 5.9375 162.4375 C3.15600586 162.68041992 3.15600586 162.68041992 -0.34765625 162.66796875 C-1.59998047 162.66603516 -2.85230469 162.66410156 -4.14257812 162.66210938 C-5.45677734 162.64986328 -6.77097656 162.63761719 -8.125 162.625 C-9.44306641 162.62435547 -10.76113281 162.62371094 -12.11914062 162.62304688 C-21.92240877 162.57759123 -21.92240877 162.57759123 -23.0625 161.4375 C-23.17059116 159.85636387 -23.20934044 158.27043938 -23.22071838 156.68565369 C-23.23540161 155.1438015 -23.23540161 155.1438015 -23.25038147 153.57080078 C-23.25901466 151.86500854 -23.25901466 151.86500854 -23.26782227 150.12475586 C-23.27772186 148.93467422 -23.28762146 147.74459259 -23.29782104 146.51844788 C-23.32407103 143.24589691 -23.34590731 139.97335135 -23.36582303 136.70075679 C-23.38764533 133.28408439 -23.41505233 129.86745703 -23.44187927 126.45082092 C-23.49185712 119.97684001 -23.53677698 113.50283416 -23.57990164 107.02880436 C-23.62923059 99.66008881 -23.68416477 92.29141843 -23.73958123 84.92274654 C-23.85347941 69.76103977 -23.96030129 54.59929048 -24.0625 39.4375 C-24.79364014 39.77072266 -25.52478027 40.10394531 -26.27807617 40.44726562 C-29.59775376 41.95369607 -32.92371793 43.44571289 -36.25 44.9375 C-37.40048828 45.46214844 -38.55097656 45.98679687 -39.73632812 46.52734375 C-40.84814453 47.02363281 -41.95996094 47.51992188 -43.10546875 48.03125 C-44.12664795 48.49208984 -45.14782715 48.95292969 -46.19995117 49.42773438 C-49.05958349 50.4364712 -51.06013806 50.72933587 -54.0625 50.4375 C-56.71293651 47.78706349 -55.29740299 40.1291676 -55.3125 36.5625 C-55.333125 35.35207031 -55.35375 34.14164062 -55.375 32.89453125 C-55.38015625 31.73566406 -55.3853125 30.57679688 -55.390625 29.3828125 C-55.3999707 28.31562988 -55.40931641 27.24844727 -55.41894531 26.14892578 C-55.0625 23.4375 -55.0625 23.4375 -53.98730469 21.77832031 C-51.15107467 19.80260046 -48.08606246 18.43064669 -44.9375 17.0390625 C-44.23536377 16.72222504 -43.53322754 16.40538757 -42.80981445 16.07894897 C-40.56353085 15.06704535 -38.31316415 14.06461701 -36.0625 13.0625 C-33.84782182 12.06809547 -31.63399132 11.07182066 -29.42018127 10.07548523 C-27.9778451 9.42820106 -26.53427442 8.7836605 -25.08946228 8.141922 C-21.97763262 6.75900437 -18.89195751 5.35437358 -15.83032227 3.86206055 C-10.25095979 1.15021183 -6.22633942 -0.19960344 0 0 Z " fill="#02A041" transform="translate(790.0625,411.5625)"/>
<path d="M0 0 C5.589375 -0.04125 11.17875 -0.0825 16.9375 -0.125 C19.55546509 -0.15231201 19.55546509 -0.15231201 22.22631836 -0.18017578 C42.29549988 -0.30368192 42.29549988 -0.30368192 50 6 C55.66550893 11.92902097 58.14096544 16.84804472 58.375 24.9375 C58.13899043 32.82415319 56.1781828 38.60623367 50.8046875 44.4609375 C43.73045394 50.49394188 34.90823366 51.16261572 25.9765625 51.09765625 C25.31422607 51.09664917 24.65188965 51.09564209 23.96948242 51.09460449 C21.52130372 51.08941589 19.07314992 51.07545499 16.625 51.0625 C11.13875 51.041875 5.6525 51.02125 0 51 C0 34.17 0 17.34 0 0 Z " fill="#FAFAFA" transform="translate(387,439)"/>
<path d="M0 0 C1.14275391 0.00902344 2.28550781 0.01804687 3.46289062 0.02734375 C6.2463231 0.05063607 9.02929229 0.08334001 11.8125 0.125 C12.01569563 9.9620588 10.80062731 16.9878399 3.84765625 24.3984375 C-3.25894984 30.42745841 -12.16500131 31.83939139 -21.1875 31.125 C-26.10693408 30.20939555 -29.88412483 28.93379068 -33.1875 25.0625 C-36.15939508 20.69752911 -36.62525811 18.46564894 -36.1875 13.125 C-34.37603802 8.67182263 -32.84523371 6.15225996 -28.625 3.8125 C-19.42117458 -0.00442291 -9.82442963 -0.14963982 0 0 Z " fill="#F7F9F8" transform="translate(546.1875,521.875)"/>
<path d="M0 0 C0.66 0.33 1.32 0.66 2 1 C-5.00497757 7.39584909 -15.68173037 8.14269518 -24.6875 8.1875 C-25.99074219 8.20167969 -27.29398438 8.21585938 -28.63671875 8.23046875 C-32 8 -32 8 -35 6 C-34.36497559 5.98541748 -33.72995117 5.97083496 -33.07568359 5.95581055 C-30.17486919 5.88094911 -27.27515794 5.78441574 -24.375 5.6875 C-22.87646484 5.65366211 -22.87646484 5.65366211 -21.34765625 5.61914062 C-15.74077337 5.41491641 -11.95452461 4.84313489 -7 2 C-5.68 2 -4.36 2 -3 2 C-2.01 1.34 -1.02 0.68 0 0 Z " fill="#0B972C" transform="translate(547,569)"/>
<path d="M0 0 C0 2.31 0 4.62 0 7 C-0.33 7 -0.66 7 -1 7 C-1.33 5.35 -1.66 3.7 -2 2 C-5.3 1.67 -8.6 1.34 -12 1 C-12 0.67 -12 0.34 -12 0 C-10.37585622 -0.19477739 -8.75063577 -0.38059458 -7.125 -0.5625 C-6.22007812 -0.66691406 -5.31515625 -0.77132812 -4.3828125 -0.87890625 C-2 -1 -2 -1 0 0 Z " fill="#1BA548" transform="translate(560,521)"/>
<path d="M0 0 C0.33 0.66 0.66 1.32 1 2 C-0.98 4.97 -2.96 7.94 -5 11 C-5.33 10.01 -5.66 9.02 -6 8 C-4.78515625 5.95703125 -4.78515625 5.95703125 -3.0625 3.8125 C-2.49660156 3.09707031 -1.93070312 2.38164063 -1.34765625 1.64453125 C-0.90292969 1.10183594 -0.45820313 0.55914063 0 0 Z " fill="#078E1F" transform="translate(489,517)"/>
<path d="M0 0 C0.66 0.99 1.32 1.98 2 3 C0.02 5.97 0.02 5.97 -2 9 C-3 6 -3 6 -1.5625 2.8125 C-1.046875 1.884375 -0.53125 0.95625 0 0 Z M2 1 C4 2 4 2 4 2 Z " fill="#0B942E" transform="translate(820,478)"/>
<path d="M0 0 C0.33 0 0.66 0 1 0 C1 3.63 1 7.26 1 11 C0.67 11 0.34 11 0 11 C0 9.02 0 7.04 0 5 C-0.66 5 -1.32 5 -2 5 C-1.34 3.35 -0.68 1.7 0 0 Z " fill="#DDF2E6" transform="translate(558,560)"/>
</svg>
